<svg width="24" height="24" viewBox="0 0 24 24" fill="none" xmlns="http://www.w3.org/2000/svg">
<path d="M9.41551 6.54904H16.3155C17.4106 6.54962 18.4909 6.31974 19.4717 5.87747C20.4525 5.43519 21.307 4.79255 21.9682 4C21.9682 4.19756 22 4.39994 22 4.60233C21.9976 6.09452 21.4504 7.54389 20.4438 8.72359C19.4373 9.90328 18.0284 10.7467 16.4376 11.1219C15.8208 11.2691 15.1857 11.3436 14.548 11.3436H12.2286C12.1858 11.3384 12.1424 11.3416 12.1011 11.3529C12.0599 11.3642 12.0217 11.3834 11.9893 11.4092C11.9569 11.4349 11.9309 11.4667 11.9131 11.5024C11.8953 11.538 11.8861 11.5767 11.8861 11.6158C11.8861 11.6549 11.8953 11.6936 11.9131 11.7293C11.9309 11.7649 11.9569 11.7967 11.9893 11.8225C12.0217 11.8482 12.0599 11.8674 12.1011 11.8787C12.1424 11.8901 12.1858 11.8932 12.2286 11.8881H16.6658C17.5894 11.8905 18.5011 11.6991 19.3297 11.3288C20.1584 10.9585 20.8815 10.4194 21.4427 9.75342C21.1968 11.0592 20.4493 12.2436 19.3329 13.0966C18.2165 13.9496 16.8033 14.416 15.3442 14.413H13.1043C13.0317 14.4218 12.965 14.4543 12.9167 14.5043C12.8684 14.5544 12.8418 14.6187 12.8418 14.6853C12.8418 14.7518 12.8684 14.8161 12.9167 14.8662C12.965 14.9163 13.0317 14.9487 13.1043 14.9575H17.0479C17.9665 14.9564 18.8675 14.7282 19.654 14.2974C19.3055 15.0412 18.7424 15.6858 18.0241 16.1633C17.3057 16.6408 16.4587 16.9334 15.5724 17.0102H14.1924C14.1122 17.0102 14.0352 17.0392 13.9785 17.0907C13.9218 17.1422 13.8899 17.2121 13.8899 17.2849C13.8899 17.3208 13.8977 17.3562 13.913 17.3893C13.9283 17.4224 13.9506 17.4523 13.9788 17.4774C14.007 17.5026 14.0404 17.5223 14.077 17.5356C14.1137 17.5489 14.1529 17.5554 14.1924 17.5548H14.6913C14.7293 17.555 14.7664 17.5653 14.7981 17.5843C14.8298 17.6033 14.8548 17.6302 14.8699 17.6618C14.8851 17.6935 14.8898 17.7284 14.8836 17.7624C14.8773 17.7964 14.8603 17.8281 14.8346 17.8535C13.9205 18.7439 12.758 19.3932 11.4703 19.7326C10.1827 20.0719 8.81792 20.0886 7.52067 19.7809C6.21376 19.4819 5.02379 18.8598 4.08304 17.9836C3.14228 17.1074 2.4876 16.0115 2.19176 14.8178C1.93962 13.8298 1.93608 12.8029 2.18142 11.8135C2.42676 10.8241 2.91466 9.89764 3.60883 9.10306C4.303 8.30847 5.18557 7.6662 6.19089 7.22402C7.19621 6.78183 8.29841 6.55112 9.41551 6.54904Z" fill="#8FA8DD"/>
</svg>
