<svg width="24" height="24" viewBox="0 0 24 24" fill="none" xmlns="http://www.w3.org/2000/svg">
<path d="M12 21C10.22 21 8.47991 20.4722 6.99987 19.4832C5.51983 18.4943 4.36628 17.0887 3.68509 15.4442C3.0039 13.7996 2.82567 11.99 3.17294 10.2442C3.5202 8.49836 4.37737 6.89472 5.63604 5.63604C6.89472 4.37737 8.49836 3.5202 10.2442 3.17294C11.99 2.82567 13.7996 3.0039 15.4442 3.68509C17.0887 4.36628 18.4943 5.51983 19.4832 6.99987C20.4722 8.47991 21 10.22 21 12C20.996 14.3857 20.0465 16.6726 18.3596 18.3596C16.6726 20.0465 14.3857 20.996 12 21ZM12 6.62312C10.9366 6.62312 9.89699 6.93847 9.01277 7.52929C8.12854 8.12011 7.43937 8.95986 7.03241 9.94236C6.62545 10.9249 6.51897 12.006 6.72643 13.049C6.9339 14.092 7.446 15.0501 8.19797 15.802C8.94994 16.554 9.90801 17.0661 10.951 17.2736C11.994 17.481 13.0751 17.3746 14.0576 16.9676C15.0401 16.5606 15.8799 15.8715 16.4707 14.9872C17.0615 14.103 17.3769 13.0634 17.3769 12C17.3756 10.5744 16.8086 9.20751 15.8006 8.19944C14.7925 7.19137 13.4256 6.62445 12 6.62312Z" fill="#9099A1"/>
</svg>
