<svg width="24" height="24" viewBox="0 0 24 24" fill="none" xmlns="http://www.w3.org/2000/svg">
<path d="M10.3787 13.8499C6.04785 13.8499 4.43817 15.5316 4.43817 15.5316C4.77715 17.197 5.59355 18.7115 6.77621 19.869C7.95888 21.0264 9.45034 21.7705 11.0475 22C11.0475 22 7.32544 17.8859 10.3787 13.8499Z" fill="#0A6DC4"/>
<path d="M12.4312 5.50963C13.0769 3.94492 12.505 2 12.505 2C11.7394 4.3885 8.39547 6.48452 8.19715 6.60639C5.93253 7.99074 4.10147 10.4718 4 13.4307C4 13.4307 4.80253 12.5825 8.46927 12.3778C12.2098 12.173 12.9385 9.29222 12.9385 9.29222C13.1922 10.3695 14.4652 11.4467 14.4652 11.4467C14.8322 11.8147 15.1148 12.2664 15.2915 12.7673C15.4681 13.2683 15.5341 13.8053 15.4845 14.3373C15.4943 15.0054 15.3343 15.664 15.0211 16.2445C14.708 16.8249 14.2532 17.3059 13.7042 17.6373C12.6628 18.1217 11.5188 18.3067 10.388 18.1735C10.5233 18.7563 10.7661 19.3052 11.1025 19.7886C11.4389 20.2721 11.8622 20.6807 12.3482 20.991C12.8492 21.339 13.4297 21.5381 14.0286 21.5672C14.6275 21.5964 15.2228 21.4546 15.752 21.1567C17.2939 20.3166 18.5286 18.9599 19.2629 17.2989C19.9972 15.6379 20.1896 13.7665 19.8099 11.9776C19.4302 10.1888 18.5 8.58345 17.1648 7.41304C15.8296 6.24264 14.1648 5.57323 12.4312 5.50963ZM8.57996 10.0185C8.04494 10.6668 6.57825 11.0909 6.57825 11.0909C6.57825 11.0909 7.19629 8.97051 8.8198 8.52693C8.90242 8.77671 8.92375 9.04454 8.88181 9.3054C8.83986 9.56626 8.73601 9.81161 8.57996 10.0185Z" fill="#0A6DC4"/>
</svg>
