<svg width="24" height="24" viewBox="0 0 24 24" fill="none" xmlns="http://www.w3.org/2000/svg">
<path d="M18.3629 18.0369C17.1018 19.4694 15.3704 20.4536 13.4495 20.8301C11.5285 21.2066 9.53056 20.9532 7.77947 20.1111C7.64518 20.047 7.51089 19.978 7.38176 19.9041L8.9623 17.8349L16.3485 16.6525C16.4177 16.6397 16.4794 16.6029 16.5217 16.5492C16.5641 16.4954 16.5839 16.4286 16.5775 16.3617C16.5711 16.2947 16.5388 16.2325 16.4869 16.187C16.435 16.1415 16.3673 16.116 16.2968 16.1154L10.2329 16.1795L12.8827 12.7307L17.5726 11.8292C17.6475 11.8217 17.7165 11.7866 17.7647 11.7314C17.8129 11.6762 17.8367 11.6052 17.8309 11.5335C17.8276 11.4986 17.8172 11.4645 17.8001 11.4334C17.783 11.4023 17.7596 11.3747 17.7312 11.3523C17.7029 11.3298 17.6702 11.313 17.635 11.3026C17.5998 11.2923 17.5628 11.2887 17.5261 11.2921L14.0448 11.2084L17.6604 6.52302C17.7202 6.45081 17.7487 6.35949 17.7401 6.26784C17.7314 6.1762 17.6863 6.0912 17.6139 6.03034C17.5387 5.97212 17.4427 5.94418 17.3462 5.95246C17.2498 5.96075 17.1605 6.00459 17.0974 6.07468L12.8775 10.2624L12.1905 7.00584C12.1827 6.93437 12.1459 6.86864 12.088 6.82263C12.0301 6.77663 11.9557 6.75398 11.8806 6.7595C11.8439 6.76259 11.8082 6.77258 11.7756 6.78889C11.743 6.8052 11.7141 6.82752 11.6906 6.85454C11.667 6.88157 11.6494 6.91277 11.6385 6.94635C11.6277 6.97993 11.624 7.01522 11.6275 7.05018L11.5087 11.6173L8.40962 14.7064L7.35593 8.97162C7.3481 8.90053 7.31114 8.83526 7.25309 8.79005C7.19505 8.74483 7.12062 8.72332 7.04602 8.73021C7.00908 8.73264 6.97303 8.74219 6.94007 8.7583C6.90711 8.7744 6.87791 8.79671 6.85425 8.82388C6.83059 8.85106 6.81296 8.88253 6.80242 8.91639C6.79188 8.95025 6.78865 8.9858 6.79293 9.02089L6.87041 16.1401L5.01095 17.9827C4.91281 17.8743 4.81984 17.761 4.73203 17.6477C3.55728 16.1485 2.94814 14.3146 3.00346 12.4437C3.05878 10.5727 3.77531 8.77453 5.03677 7.34086C8.13587 3.833 14.4115 2.68999 20.15 3.06935C21.5136 8.39519 21.4517 14.4995 18.3629 18.0369Z" fill="#63BB5B"/>
</svg>
