<svg width="24" height="24" viewBox="0 0 24 24" fill="none" xmlns="http://www.w3.org/2000/svg">
<path d="M12.0724 13.3325C11.3026 13.3325 10.5644 13.6319 10.0201 14.1648C9.47577 14.6977 9.16998 15.4204 9.16998 16.1741C9.16998 16.5197 9.42002 19.054 12.4793 19.774C15.0189 20.3788 18.4164 18.8812 19.0293 18.334C18.0752 19.785 16.667 20.8947 15.0152 21.4972C13.3635 22.0996 11.5569 22.1625 9.86566 21.6763C8.17442 21.1901 6.68935 20.181 5.63252 18.7998C4.57569 17.4187 4.00387 15.7398 4.00256 14.0141C3.95552 12.3285 4.55752 10.6871 5.68908 9.41582C5.68908 9.41582 5.05664 11.8974 6.43919 13.7789C6.43919 13.7789 5.39002 8.56144 9.60632 6.4255C10.3378 6.08963 10.9566 5.55706 11.3907 4.88992C11.8247 4.22278 12.056 3.44856 12.0577 2.65758C12.056 2.4372 12.0363 2.21731 11.9988 2C12.7655 2.32246 13.4186 2.85826 13.8771 3.5409C14.3355 4.22353 14.5791 5.02294 14.5776 5.83991C14.5776 6.0175 14.5433 6.3679 14.5433 6.3679C13.9896 6.3822 13.4571 6.57971 13.0327 6.92821C12.6083 7.27672 12.3169 7.75568 12.2062 8.28705C12.0954 8.81841 12.1717 9.37084 12.4227 9.85431C12.6736 10.3378 13.0844 10.7238 13.5882 10.9494C14.0919 11.175 14.6588 11.227 15.1965 11.0967C15.7343 10.9665 16.2111 10.6619 16.5493 10.2324C16.8875 9.80289 17.0672 9.27391 17.0591 8.73165C17.0509 8.18939 16.8554 7.66582 16.5044 7.24628C18.0796 8.2142 19.271 9.6786 19.8823 11.3982C19.9615 11.7983 20.0009 12.205 20 12.6125C19.9987 14.3087 19.3106 15.9351 18.0865 17.1354C16.8623 18.3357 15.2021 19.0118 13.4696 19.0156C13.1975 19.0152 12.9256 18.9976 12.6558 18.9628C13.3643 18.8272 13.9958 18.4379 14.4269 17.871C14.858 17.3041 15.0579 16.6002 14.9875 15.8968C14.917 15.1934 14.5813 14.5409 14.046 14.0668C13.5106 13.5926 12.8139 13.3308 12.092 13.3325H12.0724Z" fill="#FF9C54"/>
</svg>
