<svg width="24" height="24" viewBox="0 0 24 24" fill="none" xmlns="http://www.w3.org/2000/svg">
<path d="M17.8324 7.36378C18.9528 8.24083 19.8225 9.3576 20.3652 10.6162C20.908 11.8748 21.1072 13.2367 20.9454 14.5827C20.7837 15.9287 20.2659 17.2176 19.4374 18.3364C18.6089 19.4552 17.4951 20.3698 16.1936 21C14.4248 19.8206 13.1834 18.0881 12.7015 16.1267C12.2197 14.1653 12.5304 12.1094 13.5756 10.3437C14.4705 10.1453 15.3108 9.77807 16.0436 9.26513C16.7763 8.75218 17.3854 8.10474 17.8324 7.36378ZM7.49676 3.75221L8.33974 3L10.9577 5.43986H11.0467H11.1252H11.4603C11.6383 5.43986 11.8164 5.43986 11.9839 5.43986C12.1672 5.43986 12.3452 5.43986 12.5075 5.43986H12.8426H12.9211H13.0101L15.6595 3L16.4763 3.75221L14.3819 5.68095C15.2169 5.89644 16.0139 6.22121 16.7486 6.64533C16.2837 7.44018 15.5939 8.10429 14.7522 8.5672C13.9106 9.03011 12.9485 9.27453 11.9682 9.27453C10.9879 9.27453 10.0259 9.03011 9.18421 8.5672C8.34256 8.10429 7.6527 7.44018 7.18785 6.64533C7.92253 6.22121 8.71954 5.89644 9.55447 5.68095L7.49676 3.75221ZM6.17732 7.36378C6.62429 8.10474 7.23341 8.75218 7.96614 9.26513C8.69887 9.77807 9.53925 10.1453 10.4341 10.3437C11.4793 12.1094 11.7901 14.1653 11.3082 16.1267C10.8263 18.0881 9.58488 19.8206 7.81615 21C6.51354 20.3712 5.39834 19.4576 4.56835 18.3395C3.73836 17.2213 3.21893 15.9327 3.05561 14.5866C2.89228 13.2406 3.09005 11.8782 3.63158 10.6189C4.1731 9.3596 5.04184 8.24189 6.16162 7.36378H6.17732Z" fill="#90C12C"/>
</svg>
