<svg width="24" height="24" viewBox="0 0 24 24" fill="none" xmlns="http://www.w3.org/2000/svg">
<path d="M20.7396 11.5726L17.0188 9.35478C16.9715 9.32767 16.9347 9.28541 16.9143 9.23482C16.8939 9.18422 16.8911 9.12823 16.9064 9.07586L17.5221 6.76804C17.5327 6.72577 17.5322 6.68145 17.5206 6.63942C17.5091 6.59739 17.4868 6.55909 17.456 6.52826C17.4252 6.49743 17.3869 6.47513 17.345 6.46354C17.303 6.45195 17.2587 6.45146 17.2165 6.46213L14.9112 7.07845C14.8589 7.09374 14.8029 7.09097 14.7524 7.07057C14.7018 7.05016 14.6596 7.01332 14.6326 6.96598L12.4396 3.24108C12.3952 3.16751 12.3325 3.10666 12.2578 3.06443C12.183 3.02219 12.0985 3 12.0127 3C11.9268 3 11.8424 3.02219 11.7676 3.06443C11.6928 3.10666 11.6302 3.16751 11.5858 3.24108L9.37034 6.96598C9.34326 7.01332 9.30105 7.05016 9.2505 7.07057C9.19996 7.09097 9.14403 7.09374 9.09172 7.07845L6.78641 6.46213C6.74418 6.45146 6.69991 6.45195 6.65793 6.46354C6.61595 6.47513 6.57769 6.49743 6.54689 6.52826C6.5161 6.55909 6.49382 6.59739 6.48224 6.63942C6.47066 6.68145 6.47018 6.72577 6.48083 6.76804L7.09648 9.07586C7.11176 9.12823 7.10899 9.18422 7.08861 9.23482C7.06823 9.28541 7.03143 9.32767 6.98414 9.35478L3.24082 11.5726C3.16733 11.6171 3.10654 11.6798 3.06436 11.7547C3.02217 11.8295 3 11.914 3 12C3 12.086 3.02217 12.1705 3.06436 12.2453C3.10654 12.3202 3.16733 12.3829 3.24082 12.4274L6.96167 14.6452C7.00896 14.6723 7.04576 14.7146 7.06614 14.7652C7.08652 14.8158 7.08929 14.8718 7.07401 14.9241L6.45837 17.232C6.44771 17.2742 6.44819 17.3185 6.45977 17.3606C6.47135 17.4026 6.49363 17.4409 6.52442 17.4717C6.55522 17.5026 6.59348 17.5249 6.63546 17.5365C6.67745 17.548 6.72172 17.5485 6.76394 17.5379L9.06925 16.9215C9.12156 16.9063 9.17749 16.909 9.22803 16.9294C9.27858 16.9498 9.32079 16.9867 9.34787 17.034L11.5633 20.7589C11.6077 20.8325 11.6703 20.8933 11.7451 20.9356C11.8199 20.9778 11.9043 21 11.9902 21C12.0761 21 12.1605 20.9778 12.2353 20.9356C12.3101 20.8933 12.3727 20.8325 12.4171 20.7589L14.6326 17.034C14.6596 16.9867 14.7018 16.9498 14.7524 16.9294C14.8029 16.909 14.8589 16.9063 14.9112 16.9215L17.2165 17.5379C17.2587 17.5485 17.303 17.548 17.345 17.5365C17.3869 17.5249 17.4252 17.5026 17.456 17.4717C17.4868 17.4409 17.5091 17.4026 17.5206 17.3606C17.5322 17.3185 17.5327 17.2742 17.5221 17.232L16.9064 14.9241C16.8911 14.8718 16.8939 14.8158 16.9143 14.7652C16.9347 14.7146 16.9715 14.6723 17.0188 14.6452L20.7396 12.4499C20.8184 12.4069 20.8842 12.3436 20.93 12.2664C20.9758 12.1892 21 12.101 21 12.0112C21 11.9215 20.9758 11.8333 20.93 11.7561C20.8842 11.6789 20.8184 11.6155 20.7396 11.5726ZM13.3069 13.4081L12.2059 15.3155C12.1862 15.3586 12.1545 15.3951 12.1147 15.4207C12.0749 15.4463 12.0285 15.4599 11.9812 15.4599C11.9339 15.4599 11.8876 15.4463 11.8477 15.4207C11.8079 15.3951 11.7763 15.3586 11.7565 15.3155L10.6556 13.4081C10.6327 13.3718 10.602 13.341 10.5657 13.3181L8.66032 12.2159C8.61729 12.1962 8.58084 12.1645 8.55528 12.1246C8.52971 12.0848 8.51613 12.0384 8.51613 11.991C8.51613 11.9436 8.52971 11.8972 8.55528 11.8574C8.58084 11.8175 8.61729 11.7858 8.66032 11.7661L10.5657 10.6639C10.602 10.641 10.6327 10.6102 10.6556 10.5739L11.7565 8.66648C11.7763 8.62341 11.8079 8.58691 11.8477 8.56132C11.8876 8.53573 11.9339 8.52213 11.9812 8.52213C12.0285 8.52213 12.0749 8.53573 12.1147 8.56132C12.1545 8.58691 12.1862 8.62341 12.2059 8.66648L13.3069 10.5739C13.3298 10.6102 13.3605 10.641 13.3968 10.6639L15.3021 11.7661C15.3452 11.7858 15.3816 11.8175 15.4072 11.8574C15.4327 11.8972 15.4463 11.9436 15.4463 11.991C15.4463 12.0384 15.4327 12.0848 15.4072 12.1246C15.3816 12.1645 15.3452 12.1962 15.3021 12.2159L13.3968 13.3181C13.3605 13.341 13.3298 13.3718 13.3069 13.4081Z" fill="#EC8FE6"/>
</svg>
