<svg width="24" height="24" viewBox="0 0 24 24" fill="none" xmlns="http://www.w3.org/2000/svg">
<path d="M10.8347 3.03779L11.3489 3C11.5131 3 11.6717 3 11.8359 3C14.3615 3.01864 16.789 3.96786 18.6419 5.66142C20.0869 7.0764 20.9303 8.98209 21 10.9897C21 11.1192 21 11.2488 21 11.3783C20.9685 11.9067 20.886 12.4309 20.7538 12.9439C20.4877 14.0348 19.952 15.0437 19.1945 15.8806C18.4259 16.7033 17.4556 17.3168 16.3769 17.6621C15.8759 17.8289 15.3589 17.9446 14.834 18.0076C14.3014 18.0672 13.7636 18.0672 13.231 18.0076C12.1386 17.9008 11.0936 17.5137 10.2 16.8847C9.28746 16.241 8.61159 15.3221 8.27416 14.2665C8.11282 13.7617 8.02981 13.2357 8.02796 12.7064C8.01787 12.1554 8.10678 11.6071 8.29058 11.0868C8.56837 10.3103 9.05917 9.62513 9.7083 9.10758C10.3574 8.59003 11.1394 8.26043 11.9672 8.15549C14.2377 7.86937 15.797 9.49969 15.9119 10.8547C16.065 12.4742 15.5125 13.311 14.5222 13.759C13.9964 13.9546 13.4182 13.9647 12.8857 13.7876C12.3531 13.6105 11.8991 13.2571 11.6006 12.7873C11.5713 12.7269 11.5546 12.6612 11.5515 12.5943C11.5483 12.5273 11.5588 12.4605 11.5822 12.3976C11.6057 12.3347 11.6417 12.2771 11.688 12.2281C11.7344 12.1791 11.7903 12.1399 11.8523 12.1125C11.9786 12.0607 12.12 12.0575 12.2486 12.1034C12.3772 12.1494 12.4837 12.2412 12.5471 12.3609C12.6061 12.4629 12.685 12.5524 12.7792 12.6242C12.8733 12.696 12.981 12.7487 13.0959 12.7793C13.2108 12.8099 13.3308 12.8178 13.4488 12.8025C13.5668 12.7872 13.6806 12.749 13.7836 12.6902C14.0266 12.4944 14.2056 12.2321 14.2981 11.9363C14.3906 11.6405 14.3924 11.3243 14.3033 11.0274C14.2331 10.7503 14.0814 10.4999 13.8672 10.3078C13.653 10.1157 13.3859 9.99039 13.0997 9.94776C12.7876 9.88327 12.4653 9.88327 12.1532 9.94776C11.8369 10.0046 11.5343 10.12 11.2614 10.2879C11.0059 10.4466 10.7848 10.6539 10.611 10.8976C10.4373 11.1413 10.3143 11.4167 10.2492 11.7076C10.1861 11.9986 10.175 12.2982 10.2164 12.593C10.2595 12.9008 10.3422 13.202 10.4626 13.4891C10.704 14.1062 11.1278 14.6375 11.679 15.0139C12.2303 15.3903 12.8835 15.5945 13.5538 15.5999C14.6416 15.5655 15.6773 15.1324 16.459 14.3853C17.2237 13.5288 17.6166 12.4101 17.5532 11.2704C17.5532 11.2704 17.504 9.01923 15.9994 7.75061C14.888 6.8185 13.4564 6.34311 12 6.4226C10.5379 6.38994 9.11326 6.88087 7.98967 7.80459C7.60304 8.17011 7.26646 8.58389 6.98845 9.03543C6.38176 10.0287 6.04274 11.1586 6.00365 12.3177C5.99531 12.4705 5.99531 12.6237 6.00365 12.7765C5.99599 12.9114 5.99599 13.0466 6.00365 13.1814C6.03397 13.4822 6.07962 13.7813 6.14043 14.0776C6.25738 14.6751 6.44086 15.2581 6.68754 15.8158C7.16738 16.9209 7.96906 17.8603 8.99088 18.5151C11.1246 19.8862 13.9915 19.9618 16.7653 19.3032C16.8219 19.2742 16.8874 19.267 16.9491 19.283C17.0107 19.2989 17.0642 19.3369 17.0991 19.3896C17.1866 19.5461 17.017 19.6973 16.9678 19.7351C15.8631 20.5847 14.4945 21.031 13.0942 20.9983C5.37994 20.9983 3.62918 15.5621 3.39392 14.7793C3.27522 14.3825 3.18203 13.9786 3.11489 13.5701C3.08207 13.3704 3.04924 13.1436 3.03283 12.9115C3.01641 12.6794 3 12.5066 3 12.2961C3 4.80307 9.23161 3.03779 10.8347 3.03779Z" fill="#F97176"/>
</svg>
