<svg width="24" height="24" viewBox="0 0 24 24" fill="none" xmlns="http://www.w3.org/2000/svg">
<path d="M17.0025 4H6.99746L2 12L6.99746 20H17.0025L22 12L17.0025 4ZM12 16.2024C11.1012 16.2024 10.2225 15.9559 9.47519 15.4941C8.72785 15.0324 8.14537 14.3761 7.8014 13.6082C7.45744 12.8403 7.36744 11.9953 7.54279 11.1802C7.71814 10.365 8.15097 9.6162 8.78653 9.02849C9.4221 8.44078 10.2319 8.04054 11.1134 7.87839C11.995 7.71625 12.9087 7.79947 13.7391 8.11753C14.5695 8.4356 15.2793 8.97422 15.7786 9.6653C16.278 10.3564 16.5445 11.1689 16.5445 12C16.5445 13.1145 16.0657 14.1834 15.2135 14.9715C14.3612 15.7596 13.2053 16.2024 12 16.2024Z" fill="#5A8EA1"/>
</svg>
