<svg width="24" height="24" viewBox="0 0 24 24" fill="none" xmlns="http://www.w3.org/2000/svg">
<path d="M21 10.9342C21 6.55778 16.96 3 12 3C7.04 3 3 6.55778 3 10.9342C3.02094 12.072 3.29452 13.1897 3.7998 14.2017C4.30507 15.2138 5.02862 16.0933 5.915 16.7729C5.68963 17.2179 5.57293 17.7127 5.575 18.2145C5.575 19.7592 6.625 21 7.92 21C8.39423 20.9811 8.85172 20.8145 9.23203 20.5221C9.61234 20.2298 9.89756 19.8255 10.05 19.3627C10.1722 19.8089 10.4249 20.2055 10.7739 20.4985C11.1228 20.7915 11.5509 20.9666 12 21C12.4499 20.9676 12.8792 20.793 13.2291 20.4999C13.579 20.2069 13.8325 19.8097 13.955 19.3627C14.1074 19.8255 14.3927 20.2298 14.773 20.5221C15.1533 20.8145 15.6108 20.9811 16.085 21C17.38 21 18.43 19.754 18.43 18.2145C18.4321 17.7127 18.3154 17.2179 18.09 16.7729C18.9755 16.0928 19.6981 15.213 20.2024 14.201C20.7068 13.189 20.9796 12.0715 21 10.9342ZM12 15.738C8.71 15.738 6.035 13.5807 6.035 10.9342C6.035 8.28776 8.71 6.13043 12 6.13043C15.29 6.13043 17.965 8.28261 17.965 10.9342C17.965 13.5858 15.29 15.738 12 15.738Z" fill="#AB6AC8"/>
</svg>
