<svg width="24" height="24" viewBox="0 0 24 24" fill="none" xmlns="http://www.w3.org/2000/svg">
<path d="M12 2C12 2 4 8.85792 4 14.9905C4 16.8496 4.84285 18.6324 6.34313 19.947C7.84342 21.2615 9.87824 22 12 22C14.1217 22 16.1565 21.2615 17.6568 19.947C19.1571 18.6324 19.9999 16.8496 19.9999 14.9905C20.0308 8.85792 12 2 12 2ZM15.9104 17.3884C15.6331 17.9151 15.228 18.3826 14.7234 18.7581C14.2188 19.1337 13.6268 19.4083 12.9887 19.5628C12.3505 19.7173 11.6816 19.748 11.0285 19.6528C10.3754 19.5576 9.75392 19.3387 9.20729 19.0114C8.66065 18.6841 8.20206 18.2563 7.86349 17.7578C7.52491 17.2593 7.31449 16.7021 7.24689 16.125C7.1793 15.548 7.25616 14.9649 7.47211 14.4166C7.68806 13.8682 8.03791 13.3677 8.49727 12.9499C8.36437 13.7885 8.54196 14.6423 9.00394 15.3859C9.46592 16.1295 10.1879 16.7236 11.0639 17.081C11.9398 17.4384 12.9235 17.5402 13.8703 17.3714C14.8172 17.2027 15.6773 16.7723 16.3243 16.1434C16.2674 16.5759 16.1275 16.9968 15.9104 17.3884Z" fill="#4D90D5"/>
</svg>
