<svg width="24" height="24" viewBox="0 0 24 24" fill="none" xmlns="http://www.w3.org/2000/svg">
<path d="M19.9851 19.5412C19.8073 19.5432 19.6309 19.5107 19.4661 19.4457C19.3012 19.3806 19.1512 19.2842 19.0248 19.1621C18.8983 19.04 18.798 18.8947 18.7295 18.7344C18.6609 18.5742 18.6257 18.4023 18.6257 18.2286C18.6248 17.9267 18.7314 17.6338 18.9272 17.4001C20.0231 16.1099 20.7183 14.5405 20.9308 12.8771C21.1433 11.2137 20.8642 9.52569 20.1266 8.01208C19.3889 6.49846 18.2234 5.22242 16.7675 4.33444C15.3116 3.44647 13.626 2.98361 11.9096 3.00044C10.1932 3.01728 8.51746 3.51312 7.08011 4.42947C5.64277 5.34582 4.50374 6.64447 3.79737 8.17225C3.091 9.70003 2.84675 11.3932 3.09342 13.0521C3.3401 14.711 4.06741 16.2664 5.18959 17.5349L5.32758 17.6896C5.34899 17.7089 5.36787 17.7307 5.38379 17.7545L5.42468 17.7944C6.21638 18.6185 7.16171 19.2876 8.21003 19.7658C9.98117 20.6358 11.9475 21.0579 13.9289 20.9936C13.9289 20.9936 17.7466 20.9936 20.256 19.4963C20.3531 19.4664 20.0823 19.5412 19.9851 19.5412ZM8.48601 12.5539C8.02147 12.5531 7.57144 12.3958 7.21184 12.1086C6.85223 11.8214 6.60505 11.4219 6.51199 10.9775C6.41892 10.533 6.48567 10.0708 6.70096 9.66881C6.91626 9.26682 7.26694 8.94965 7.69384 8.77078C7.69384 8.79573 7.69384 8.82069 7.69384 8.84065C7.69947 9.16467 7.78579 9.48248 7.94534 9.76663C8.10489 10.0508 8.33287 10.2927 8.6096 10.4716C8.88633 10.6504 9.20348 10.7608 9.53366 10.7932C9.86385 10.8255 10.1971 10.7789 10.5047 10.6574C10.4888 11.1688 10.2687 11.654 9.89155 12.0092C9.5144 12.3645 9.01001 12.5618 8.48601 12.5589V12.5539ZM15.595 12.5539C15.0732 12.5542 14.5715 12.3567 14.1959 12.0029C13.8203 11.6491 13.5999 11.1667 13.5814 10.6574C13.889 10.7789 14.2223 10.8255 14.5525 10.7932C14.8827 10.7608 15.1998 10.6504 15.4765 10.4716C15.7533 10.2927 15.9813 10.0508 16.1408 9.76663C16.3004 9.48248 16.3867 9.16467 16.3923 8.84065C16.3923 8.84065 16.3923 8.79573 16.3923 8.77078C16.8192 8.94965 17.1699 9.26682 17.3852 9.66881C17.6005 10.0708 17.6672 10.533 17.5742 10.9775C17.4811 11.4219 17.2339 11.8214 16.8743 12.1086C16.5147 12.3958 16.0647 12.5531 15.6001 12.5539H15.595Z" fill="#5269AC"/>
</svg>
