<svg width="24" height="24" viewBox="0 0 24 24" fill="none" xmlns="http://www.w3.org/2000/svg">
<path d="M12 3C10.22 3 8.47991 3.52784 6.99987 4.51677C5.51983 5.50571 4.36628 6.91131 3.68509 8.55585C3.0039 10.2004 2.82567 12.01 3.17294 13.7558C3.5202 15.5016 4.37737 17.1053 5.63604 18.364C6.89472 19.6226 8.49836 20.4798 10.2442 20.8271C11.99 21.1743 13.7996 20.9961 15.4442 20.3149C17.0887 19.6337 18.4943 18.4802 19.4832 17.0001C20.4722 15.5201 21 13.78 21 12C21 9.61305 20.0518 7.32387 18.364 5.63604C16.6761 3.94821 14.387 3 12 3ZM12 19.2276C11.2158 19.2283 10.4369 19.0999 9.69446 18.8475C11.1541 18.3919 12.4299 17.4818 13.3359 16.25C14.2418 15.0181 14.7304 13.5291 14.7304 12C14.7304 10.4709 14.2418 8.98185 13.3359 7.75003C12.4299 6.51821 11.1541 5.60811 9.69446 5.1525C10.4369 4.9001 11.2158 4.77167 12 4.77235C13.9169 4.77235 15.7553 5.53383 17.1107 6.88928C18.4662 8.24473 19.2276 10.0831 19.2276 12C19.2276 13.9169 18.4662 15.7553 17.1107 17.1107C15.7553 18.4662 13.9169 19.2276 12 19.2276Z" fill="#5A5366"/>
</svg>
