<svg width="24" height="24" viewBox="0 0 24 24" fill="none" xmlns="http://www.w3.org/2000/svg">
<path d="M5.34789 20H3.8902L2.2211 15.6621C1.9263 14.8944 1.9263 14.0385 2.2211 13.2708L3.8902 8.93863H5.34789V20ZM22 19.6823C22 19.7666 21.9678 19.8474 21.9104 19.907C21.853 19.9665 21.7752 20 21.694 20H7.78478C7.46901 20 7.16617 19.8698 6.94288 19.638C6.71959 19.4061 6.59415 19.0917 6.59415 18.7639V11.122C6.59574 11.0255 6.61265 10.9298 6.64423 10.839C6.61059 10.7548 6.59356 10.6644 6.59415 10.5733V4.79711C6.59415 4.5857 6.67504 4.38296 6.81903 4.23347C6.96302 4.08398 7.15831 4 7.36194 4H8.79181C8.99154 4.009 9.18001 4.09852 9.31715 4.24953C9.4543 4.40055 9.5293 4.60114 9.52622 4.80866V9.88592C9.52622 9.97018 9.55845 10.051 9.61584 10.1106C9.67323 10.1701 9.75106 10.2036 9.83222 10.2036H10.3886C10.4288 10.2036 10.4686 10.1954 10.5057 10.1794C10.5428 10.1635 10.5765 10.1401 10.605 10.1106C10.6334 10.0811 10.6559 10.046 10.6713 10.0075C10.6867 9.96895 10.6946 9.92764 10.6946 9.88592V4.80866C10.6946 4.59726 10.7755 4.39451 10.9195 4.24502C11.0635 4.09553 11.2587 4.01155 11.4624 4.01155H12.9201C13.1237 4.01155 13.319 4.09553 13.463 4.24502C13.607 4.39451 13.6879 4.59726 13.6879 4.80866V9.88592C13.6879 9.97018 13.7201 10.051 13.7775 10.1106C13.8349 10.1701 13.9127 10.2036 13.9939 10.2036H14.5502C14.6314 10.2036 14.7092 10.1701 14.7666 10.1106C14.824 10.051 14.8562 9.97018 14.8562 9.88592V4.80866C14.8562 4.70201 14.8768 4.59644 14.9167 4.49819C14.9567 4.39994 15.0152 4.31102 15.0889 4.23669C15.1626 4.16236 15.2499 4.10414 15.3456 4.06547C15.4413 4.02679 15.5436 4.00846 15.6463 4.01155H17.0761C17.1793 4.00767 17.2821 4.02542 17.3785 4.06373C17.4749 4.10205 17.5629 4.16015 17.6371 4.23456C17.7114 4.30897 17.7704 4.39816 17.8108 4.4968C17.8511 4.59544 17.8718 4.70151 17.8717 4.80866V9.88592C17.8717 9.97018 17.904 10.051 17.9614 10.1106C18.0188 10.1701 18.0966 10.2036 18.1777 10.2036H18.7341C18.8153 10.2036 18.8931 10.1701 18.9505 10.1106C19.0079 10.051 19.0401 9.97018 19.0401 9.88592V4.80866C19.0401 4.59726 19.121 4.39451 19.265 4.24502C19.409 4.09553 19.6043 4.01155 19.8079 4.01155H21.21C21.4136 4.01155 21.6089 4.09553 21.7529 4.24502C21.8969 4.39451 21.9777 4.59726 21.9777 4.80866L22 19.6823Z" fill="#CE4069"/>
</svg>
